<mxfile host="app.diagrams.net" agent="Mozilla/5.0 (Windows NT 10.0; Win64; x64; rv:136.0) Gecko/20100101 Firefox/136.0" version="26.1.1">
  <diagram name="Page-1" id="MKJBxZC7SVXOA2IAfaPP">
    <mxGraphModel dx="2284" dy="746" grid="1" gridSize="10" guides="1" tooltips="1" connect="1" arrows="1" fold="1" page="1" pageScale="1" pageWidth="850" pageHeight="1100" math="0" shadow="0">
      <root>
        <mxCell id="0" />
        <mxCell id="1" parent="0" />
        <mxCell id="eTQndeM9FgUhA0bgiUzU-47" value="" style="edgeStyle=orthogonalEdgeStyle;rounded=0;orthogonalLoop=1;jettySize=auto;html=1;fillColor=#f8cecc;strokeColor=#b85450;" edge="1" parent="1" source="eTQndeM9FgUhA0bgiUzU-37" target="eTQndeM9FgUhA0bgiUzU-46">
          <mxGeometry relative="1" as="geometry" />
        </mxCell>
        <mxCell id="7SyoxUFFTEimoOGPN8hH-71" style="edgeStyle=orthogonalEdgeStyle;rounded=0;orthogonalLoop=1;jettySize=auto;html=1;exitX=1;exitY=0.5;exitDx=0;exitDy=0;entryX=1;entryY=0.5;entryDx=0;entryDy=0;" edge="1" parent="1" source="7SyoxUFFTEimoOGPN8hH-60" target="7SyoxUFFTEimoOGPN8hH-63">
          <mxGeometry relative="1" as="geometry" />
        </mxCell>
        <mxCell id="eTQndeM9FgUhA0bgiUzU-37" value="VOĆE" style="rounded=0;whiteSpace=wrap;html=1;" vertex="1" parent="1">
          <mxGeometry x="150" y="130" width="120" height="60" as="geometry" />
        </mxCell>
        <mxCell id="eTQndeM9FgUhA0bgiUzU-84" style="edgeStyle=orthogonalEdgeStyle;rounded=0;orthogonalLoop=1;jettySize=auto;html=1;entryX=1;entryY=0.5;entryDx=0;entryDy=0;fillColor=#f8cecc;strokeColor=#b85450;" edge="1" parent="1" source="eTQndeM9FgUhA0bgiUzU-38" target="eTQndeM9FgUhA0bgiUzU-39">
          <mxGeometry relative="1" as="geometry">
            <mxPoint x="640" y="430" as="targetPoint" />
            <Array as="points">
              <mxPoint x="630" y="420" />
            </Array>
          </mxGeometry>
        </mxCell>
        <mxCell id="eTQndeM9FgUhA0bgiUzU-38" value="DOBAVLJAĆ" style="rounded=0;whiteSpace=wrap;html=1;" vertex="1" parent="1">
          <mxGeometry x="580" y="130" width="120" height="60" as="geometry" />
        </mxCell>
        <mxCell id="eTQndeM9FgUhA0bgiUzU-39" value="dobavlja" style="rhombus;whiteSpace=wrap;html=1;" vertex="1" parent="1">
          <mxGeometry x="470" y="380" width="80" height="80" as="geometry" />
        </mxCell>
        <mxCell id="eTQndeM9FgUhA0bgiUzU-44" value="&lt;div&gt;SORTA&lt;/div&gt;&lt;div&gt;&lt;br&gt;&lt;/div&gt;" style="rounded=0;whiteSpace=wrap;html=1;" vertex="1" parent="1">
          <mxGeometry x="150" y="380" width="120" height="60" as="geometry" />
        </mxCell>
        <mxCell id="eTQndeM9FgUhA0bgiUzU-48" value="" style="edgeStyle=orthogonalEdgeStyle;rounded=0;orthogonalLoop=1;jettySize=auto;html=1;fillColor=#f8cecc;strokeColor=#b85450;" edge="1" parent="1" source="eTQndeM9FgUhA0bgiUzU-46" target="eTQndeM9FgUhA0bgiUzU-44">
          <mxGeometry relative="1" as="geometry" />
        </mxCell>
        <mxCell id="eTQndeM9FgUhA0bgiUzU-46" value="Se djeli na" style="rhombus;whiteSpace=wrap;html=1;" vertex="1" parent="1">
          <mxGeometry x="170" y="240" width="80" height="80" as="geometry" />
        </mxCell>
        <mxCell id="eTQndeM9FgUhA0bgiUzU-49" value="1" style="text;html=1;align=center;verticalAlign=middle;resizable=0;points=[];autosize=1;strokeColor=none;fillColor=none;" vertex="1" parent="1">
          <mxGeometry x="205" y="198" width="30" height="30" as="geometry" />
        </mxCell>
        <mxCell id="eTQndeM9FgUhA0bgiUzU-50" value="N" style="text;html=1;align=center;verticalAlign=middle;resizable=0;points=[];autosize=1;strokeColor=none;fillColor=none;" vertex="1" parent="1">
          <mxGeometry x="215" y="328" width="30" height="30" as="geometry" />
        </mxCell>
        <mxCell id="eTQndeM9FgUhA0bgiUzU-85" value="M" style="text;html=1;align=center;verticalAlign=middle;resizable=0;points=[];autosize=1;strokeColor=none;fillColor=none;" vertex="1" parent="1">
          <mxGeometry x="605" y="288" width="30" height="30" as="geometry" />
        </mxCell>
        <mxCell id="eTQndeM9FgUhA0bgiUzU-86" style="edgeStyle=orthogonalEdgeStyle;rounded=0;orthogonalLoop=1;jettySize=auto;html=1;entryX=1.017;entryY=0.65;entryDx=0;entryDy=0;entryPerimeter=0;fillColor=#f8cecc;strokeColor=#b85450;" edge="1" parent="1" source="eTQndeM9FgUhA0bgiUzU-39" target="eTQndeM9FgUhA0bgiUzU-44">
          <mxGeometry relative="1" as="geometry" />
        </mxCell>
        <mxCell id="eTQndeM9FgUhA0bgiUzU-87" value="N" style="text;html=1;align=center;verticalAlign=middle;resizable=0;points=[];autosize=1;strokeColor=none;fillColor=none;" vertex="1" parent="1">
          <mxGeometry x="365" y="388" width="30" height="30" as="geometry" />
        </mxCell>
        <mxCell id="eTQndeM9FgUhA0bgiUzU-88" value="IDVoce" style="ellipse;whiteSpace=wrap;html=1;align=center;" vertex="1" parent="1">
          <mxGeometry x="105" y="50" width="100" height="40" as="geometry" />
        </mxCell>
        <mxCell id="eTQndeM9FgUhA0bgiUzU-89" value="Naziv" style="ellipse;whiteSpace=wrap;html=1;align=center;" vertex="1" parent="1">
          <mxGeometry x="245" y="50" width="100" height="40" as="geometry" />
        </mxCell>
        <mxCell id="eTQndeM9FgUhA0bgiUzU-90" style="edgeStyle=orthogonalEdgeStyle;rounded=0;orthogonalLoop=1;jettySize=auto;html=1;entryX=0.108;entryY=0.05;entryDx=0;entryDy=0;entryPerimeter=0;fillColor=#dae8fc;strokeColor=#6c8ebf;" edge="1" parent="1" source="eTQndeM9FgUhA0bgiUzU-88" target="eTQndeM9FgUhA0bgiUzU-37">
          <mxGeometry relative="1" as="geometry" />
        </mxCell>
        <mxCell id="eTQndeM9FgUhA0bgiUzU-91" style="edgeStyle=orthogonalEdgeStyle;rounded=0;orthogonalLoop=1;jettySize=auto;html=1;entryX=0.65;entryY=0;entryDx=0;entryDy=0;entryPerimeter=0;fillColor=#dae8fc;strokeColor=#6c8ebf;" edge="1" parent="1" source="eTQndeM9FgUhA0bgiUzU-89" target="eTQndeM9FgUhA0bgiUzU-37">
          <mxGeometry relative="1" as="geometry" />
        </mxCell>
        <mxCell id="eTQndeM9FgUhA0bgiUzU-93" style="edgeStyle=orthogonalEdgeStyle;rounded=0;orthogonalLoop=1;jettySize=auto;html=1;entryX=0;entryY=0.5;entryDx=0;entryDy=0;fillColor=#dae8fc;strokeColor=#6c8ebf;" edge="1" parent="1" source="eTQndeM9FgUhA0bgiUzU-92" target="eTQndeM9FgUhA0bgiUzU-38">
          <mxGeometry relative="1" as="geometry" />
        </mxCell>
        <mxCell id="eTQndeM9FgUhA0bgiUzU-92" value="IDDobavljac" style="ellipse;whiteSpace=wrap;html=1;align=center;" vertex="1" parent="1">
          <mxGeometry x="440" y="40" width="100" height="40" as="geometry" />
        </mxCell>
        <mxCell id="eTQndeM9FgUhA0bgiUzU-98" style="edgeStyle=orthogonalEdgeStyle;rounded=0;orthogonalLoop=1;jettySize=auto;html=1;entryX=0.5;entryY=0;entryDx=0;entryDy=0;fillColor=#dae8fc;strokeColor=#6c8ebf;" edge="1" parent="1" source="eTQndeM9FgUhA0bgiUzU-94" target="eTQndeM9FgUhA0bgiUzU-38">
          <mxGeometry relative="1" as="geometry" />
        </mxCell>
        <mxCell id="eTQndeM9FgUhA0bgiUzU-94" value="Ime" style="ellipse;whiteSpace=wrap;html=1;align=center;" vertex="1" parent="1">
          <mxGeometry x="590" y="40" width="100" height="40" as="geometry" />
        </mxCell>
        <mxCell id="eTQndeM9FgUhA0bgiUzU-99" style="edgeStyle=orthogonalEdgeStyle;rounded=0;orthogonalLoop=1;jettySize=auto;html=1;entryX=1;entryY=0.75;entryDx=0;entryDy=0;fillColor=#dae8fc;strokeColor=#6c8ebf;" edge="1" parent="1" source="eTQndeM9FgUhA0bgiUzU-97" target="eTQndeM9FgUhA0bgiUzU-38">
          <mxGeometry relative="1" as="geometry">
            <Array as="points">
              <mxPoint x="760" y="175" />
            </Array>
          </mxGeometry>
        </mxCell>
        <mxCell id="eTQndeM9FgUhA0bgiUzU-97" value="Prezime" style="ellipse;whiteSpace=wrap;html=1;align=center;" vertex="1" parent="1">
          <mxGeometry x="710" y="40" width="100" height="40" as="geometry" />
        </mxCell>
        <mxCell id="eTQndeM9FgUhA0bgiUzU-100" value="Adresa" style="ellipse;whiteSpace=wrap;html=1;align=center;" vertex="1" parent="1">
          <mxGeometry x="710" y="240" width="100" height="40" as="geometry" />
        </mxCell>
        <mxCell id="eTQndeM9FgUhA0bgiUzU-101" style="edgeStyle=orthogonalEdgeStyle;rounded=0;orthogonalLoop=1;jettySize=auto;html=1;entryX=0.675;entryY=1.033;entryDx=0;entryDy=0;entryPerimeter=0;fillColor=#dae8fc;strokeColor=#6c8ebf;" edge="1" parent="1" source="eTQndeM9FgUhA0bgiUzU-100" target="eTQndeM9FgUhA0bgiUzU-38">
          <mxGeometry relative="1" as="geometry" />
        </mxCell>
        <mxCell id="eTQndeM9FgUhA0bgiUzU-102" value="Broj MObitela" style="ellipse;whiteSpace=wrap;html=1;align=center;" vertex="1" parent="1">
          <mxGeometry x="470" y="248" width="100" height="40" as="geometry" />
        </mxCell>
        <mxCell id="eTQndeM9FgUhA0bgiUzU-103" style="edgeStyle=orthogonalEdgeStyle;rounded=0;orthogonalLoop=1;jettySize=auto;html=1;entryX=0.108;entryY=1.067;entryDx=0;entryDy=0;entryPerimeter=0;fillColor=#dae8fc;strokeColor=#6c8ebf;" edge="1" parent="1" source="eTQndeM9FgUhA0bgiUzU-102" target="eTQndeM9FgUhA0bgiUzU-38">
          <mxGeometry relative="1" as="geometry" />
        </mxCell>
        <mxCell id="eTQndeM9FgUhA0bgiUzU-104" value="nazziv" style="ellipse;whiteSpace=wrap;html=1;align=center;" vertex="1" parent="1">
          <mxGeometry x="-70" y="410" width="100" height="40" as="geometry" />
        </mxCell>
        <mxCell id="eTQndeM9FgUhA0bgiUzU-105" value="IDsorta" style="ellipse;whiteSpace=wrap;html=1;align=center;" vertex="1" parent="1">
          <mxGeometry x="-70" y="330" width="100" height="40" as="geometry" />
        </mxCell>
        <mxCell id="eTQndeM9FgUhA0bgiUzU-106" value="&lt;div&gt;minimalna&lt;/div&gt;&lt;div&gt;količina&lt;/div&gt;" style="ellipse;whiteSpace=wrap;html=1;align=center;" vertex="1" parent="1">
          <mxGeometry x="-70" y="510" width="100" height="40" as="geometry" />
        </mxCell>
        <mxCell id="eTQndeM9FgUhA0bgiUzU-109" style="edgeStyle=orthogonalEdgeStyle;rounded=0;orthogonalLoop=1;jettySize=auto;html=1;entryX=0.408;entryY=1;entryDx=0;entryDy=0;entryPerimeter=0;fillColor=#dae8fc;strokeColor=#6c8ebf;" edge="1" parent="1" source="eTQndeM9FgUhA0bgiUzU-106" target="eTQndeM9FgUhA0bgiUzU-44">
          <mxGeometry relative="1" as="geometry" />
        </mxCell>
        <mxCell id="eTQndeM9FgUhA0bgiUzU-110" style="edgeStyle=orthogonalEdgeStyle;rounded=0;orthogonalLoop=1;jettySize=auto;html=1;entryX=0.075;entryY=1;entryDx=0;entryDy=0;entryPerimeter=0;fillColor=#dae8fc;strokeColor=#6c8ebf;" edge="1" parent="1" source="eTQndeM9FgUhA0bgiUzU-104" target="eTQndeM9FgUhA0bgiUzU-44">
          <mxGeometry relative="1" as="geometry" />
        </mxCell>
        <mxCell id="eTQndeM9FgUhA0bgiUzU-112" style="edgeStyle=orthogonalEdgeStyle;rounded=0;orthogonalLoop=1;jettySize=auto;html=1;entryX=0.1;entryY=0;entryDx=0;entryDy=0;entryPerimeter=0;fillColor=#dae8fc;strokeColor=#6c8ebf;" edge="1" parent="1" source="eTQndeM9FgUhA0bgiUzU-105" target="eTQndeM9FgUhA0bgiUzU-44">
          <mxGeometry relative="1" as="geometry" />
        </mxCell>
        <mxCell id="eTQndeM9FgUhA0bgiUzU-113" value="prodajna Cijena" style="ellipse;whiteSpace=wrap;html=1;align=center;" vertex="1" parent="1">
          <mxGeometry x="60" y="600" width="100" height="40" as="geometry" />
        </mxCell>
        <mxCell id="eTQndeM9FgUhA0bgiUzU-115" style="edgeStyle=orthogonalEdgeStyle;rounded=0;orthogonalLoop=1;jettySize=auto;html=1;entryX=1;entryY=1;entryDx=0;entryDy=0;fillColor=#dae8fc;strokeColor=#6c8ebf;" edge="1" parent="1" source="eTQndeM9FgUhA0bgiUzU-114" target="eTQndeM9FgUhA0bgiUzU-44">
          <mxGeometry relative="1" as="geometry" />
        </mxCell>
        <mxCell id="eTQndeM9FgUhA0bgiUzU-114" value="nabavna Cijen" style="ellipse;whiteSpace=wrap;html=1;align=center;" vertex="1" parent="1">
          <mxGeometry x="310" y="560" width="100" height="40" as="geometry" />
        </mxCell>
        <mxCell id="eTQndeM9FgUhA0bgiUzU-116" style="edgeStyle=orthogonalEdgeStyle;rounded=0;orthogonalLoop=1;jettySize=auto;html=1;entryX=0.858;entryY=1.017;entryDx=0;entryDy=0;entryPerimeter=0;fillColor=#dae8fc;strokeColor=#6c8ebf;" edge="1" parent="1" source="eTQndeM9FgUhA0bgiUzU-113" target="eTQndeM9FgUhA0bgiUzU-44">
          <mxGeometry relative="1" as="geometry">
            <Array as="points">
              <mxPoint x="110" y="580" />
              <mxPoint x="253" y="580" />
            </Array>
          </mxGeometry>
        </mxCell>
        <mxCell id="eTQndeM9FgUhA0bgiUzU-117" value="OBAVEZNO" style="whiteSpace=wrap;html=1;align=center;fillColor=#d5e8d4;strokeColor=#82b366;" vertex="1" parent="1">
          <mxGeometry x="270" y="340" width="100" height="40" as="geometry" />
        </mxCell>
        <mxCell id="eTQndeM9FgUhA0bgiUzU-118" value="NEOBAVEZNO" style="whiteSpace=wrap;html=1;align=center;fillColor=#f8cecc;strokeColor=#b85450;" vertex="1" parent="1">
          <mxGeometry x="270" y="190" width="100" height="40" as="geometry" />
        </mxCell>
        <mxCell id="eTQndeM9FgUhA0bgiUzU-119" value="OBAVEZNO" style="whiteSpace=wrap;html=1;align=center;fillColor=#d5e8d4;strokeColor=#82b366;" vertex="1" parent="1">
          <mxGeometry x="280" y="440" width="100" height="40" as="geometry" />
        </mxCell>
        <mxCell id="eTQndeM9FgUhA0bgiUzU-121" value="OBAVEZNO" style="whiteSpace=wrap;html=1;align=center;fillColor=#d5e8d4;strokeColor=#82b366;" vertex="1" parent="1">
          <mxGeometry x="480" y="180" width="100" height="40" as="geometry" />
        </mxCell>
        <mxCell id="7SyoxUFFTEimoOGPN8hH-1" value="Dobavljac" style="shape=table;startSize=30;container=1;collapsible=1;childLayout=tableLayout;fixedRows=1;rowLines=0;fontStyle=1;align=center;resizeLast=1;html=1;" vertex="1" parent="1">
          <mxGeometry x="-200" y="780" width="180" height="180" as="geometry" />
        </mxCell>
        <mxCell id="7SyoxUFFTEimoOGPN8hH-2" value="" style="shape=tableRow;horizontal=0;startSize=0;swimlaneHead=0;swimlaneBody=0;fillColor=none;collapsible=0;dropTarget=0;points=[[0,0.5],[1,0.5]];portConstraint=eastwest;top=0;left=0;right=0;bottom=1;" vertex="1" parent="7SyoxUFFTEimoOGPN8hH-1">
          <mxGeometry y="30" width="180" height="30" as="geometry" />
        </mxCell>
        <mxCell id="7SyoxUFFTEimoOGPN8hH-3" value="PK" style="shape=partialRectangle;connectable=0;fillColor=none;top=0;left=0;bottom=0;right=0;fontStyle=1;overflow=hidden;whiteSpace=wrap;html=1;" vertex="1" parent="7SyoxUFFTEimoOGPN8hH-2">
          <mxGeometry width="30" height="30" as="geometry">
            <mxRectangle width="30" height="30" as="alternateBounds" />
          </mxGeometry>
        </mxCell>
        <mxCell id="7SyoxUFFTEimoOGPN8hH-4" value="IDDobavljac" style="shape=partialRectangle;connectable=0;fillColor=none;top=0;left=0;bottom=0;right=0;align=left;spacingLeft=6;fontStyle=5;overflow=hidden;whiteSpace=wrap;html=1;" vertex="1" parent="7SyoxUFFTEimoOGPN8hH-2">
          <mxGeometry x="30" width="150" height="30" as="geometry">
            <mxRectangle width="150" height="30" as="alternateBounds" />
          </mxGeometry>
        </mxCell>
        <mxCell id="7SyoxUFFTEimoOGPN8hH-5" value="" style="shape=tableRow;horizontal=0;startSize=0;swimlaneHead=0;swimlaneBody=0;fillColor=none;collapsible=0;dropTarget=0;points=[[0,0.5],[1,0.5]];portConstraint=eastwest;top=0;left=0;right=0;bottom=0;" vertex="1" parent="7SyoxUFFTEimoOGPN8hH-1">
          <mxGeometry y="60" width="180" height="30" as="geometry" />
        </mxCell>
        <mxCell id="7SyoxUFFTEimoOGPN8hH-6" value="" style="shape=partialRectangle;connectable=0;fillColor=none;top=0;left=0;bottom=0;right=0;editable=1;overflow=hidden;whiteSpace=wrap;html=1;" vertex="1" parent="7SyoxUFFTEimoOGPN8hH-5">
          <mxGeometry width="30" height="30" as="geometry">
            <mxRectangle width="30" height="30" as="alternateBounds" />
          </mxGeometry>
        </mxCell>
        <mxCell id="7SyoxUFFTEimoOGPN8hH-7" value="&lt;div&gt;Ime&lt;/div&gt;" style="shape=partialRectangle;connectable=0;fillColor=none;top=0;left=0;bottom=0;right=0;align=left;spacingLeft=6;overflow=hidden;whiteSpace=wrap;html=1;" vertex="1" parent="7SyoxUFFTEimoOGPN8hH-5">
          <mxGeometry x="30" width="150" height="30" as="geometry">
            <mxRectangle width="150" height="30" as="alternateBounds" />
          </mxGeometry>
        </mxCell>
        <mxCell id="7SyoxUFFTEimoOGPN8hH-8" value="" style="shape=tableRow;horizontal=0;startSize=0;swimlaneHead=0;swimlaneBody=0;fillColor=none;collapsible=0;dropTarget=0;points=[[0,0.5],[1,0.5]];portConstraint=eastwest;top=0;left=0;right=0;bottom=0;" vertex="1" parent="7SyoxUFFTEimoOGPN8hH-1">
          <mxGeometry y="90" width="180" height="30" as="geometry" />
        </mxCell>
        <mxCell id="7SyoxUFFTEimoOGPN8hH-9" value="" style="shape=partialRectangle;connectable=0;fillColor=none;top=0;left=0;bottom=0;right=0;editable=1;overflow=hidden;whiteSpace=wrap;html=1;" vertex="1" parent="7SyoxUFFTEimoOGPN8hH-8">
          <mxGeometry width="30" height="30" as="geometry">
            <mxRectangle width="30" height="30" as="alternateBounds" />
          </mxGeometry>
        </mxCell>
        <mxCell id="7SyoxUFFTEimoOGPN8hH-10" value="Prezime" style="shape=partialRectangle;connectable=0;fillColor=none;top=0;left=0;bottom=0;right=0;align=left;spacingLeft=6;overflow=hidden;whiteSpace=wrap;html=1;" vertex="1" parent="7SyoxUFFTEimoOGPN8hH-8">
          <mxGeometry x="30" width="150" height="30" as="geometry">
            <mxRectangle width="150" height="30" as="alternateBounds" />
          </mxGeometry>
        </mxCell>
        <mxCell id="7SyoxUFFTEimoOGPN8hH-11" value="" style="shape=tableRow;horizontal=0;startSize=0;swimlaneHead=0;swimlaneBody=0;fillColor=none;collapsible=0;dropTarget=0;points=[[0,0.5],[1,0.5]];portConstraint=eastwest;top=0;left=0;right=0;bottom=0;" vertex="1" parent="7SyoxUFFTEimoOGPN8hH-1">
          <mxGeometry y="120" width="180" height="30" as="geometry" />
        </mxCell>
        <mxCell id="7SyoxUFFTEimoOGPN8hH-12" value="" style="shape=partialRectangle;connectable=0;fillColor=none;top=0;left=0;bottom=0;right=0;editable=1;overflow=hidden;whiteSpace=wrap;html=1;" vertex="1" parent="7SyoxUFFTEimoOGPN8hH-11">
          <mxGeometry width="30" height="30" as="geometry">
            <mxRectangle width="30" height="30" as="alternateBounds" />
          </mxGeometry>
        </mxCell>
        <mxCell id="7SyoxUFFTEimoOGPN8hH-13" value="BrojMobitela" style="shape=partialRectangle;connectable=0;fillColor=none;top=0;left=0;bottom=0;right=0;align=left;spacingLeft=6;overflow=hidden;whiteSpace=wrap;html=1;" vertex="1" parent="7SyoxUFFTEimoOGPN8hH-11">
          <mxGeometry x="30" width="150" height="30" as="geometry">
            <mxRectangle width="150" height="30" as="alternateBounds" />
          </mxGeometry>
        </mxCell>
        <mxCell id="7SyoxUFFTEimoOGPN8hH-14" value="" style="shape=tableRow;horizontal=0;startSize=0;swimlaneHead=0;swimlaneBody=0;fillColor=none;collapsible=0;dropTarget=0;points=[[0,0.5],[1,0.5]];portConstraint=eastwest;top=0;left=0;right=0;bottom=0;" vertex="1" parent="7SyoxUFFTEimoOGPN8hH-1">
          <mxGeometry y="150" width="180" height="30" as="geometry" />
        </mxCell>
        <mxCell id="7SyoxUFFTEimoOGPN8hH-15" value="" style="shape=partialRectangle;connectable=0;fillColor=none;top=0;left=0;bottom=0;right=0;editable=1;overflow=hidden;whiteSpace=wrap;html=1;" vertex="1" parent="7SyoxUFFTEimoOGPN8hH-14">
          <mxGeometry width="30" height="30" as="geometry">
            <mxRectangle width="30" height="30" as="alternateBounds" />
          </mxGeometry>
        </mxCell>
        <mxCell id="7SyoxUFFTEimoOGPN8hH-16" value="Adresa" style="shape=partialRectangle;connectable=0;fillColor=none;top=0;left=0;bottom=0;right=0;align=left;spacingLeft=6;overflow=hidden;whiteSpace=wrap;html=1;" vertex="1" parent="7SyoxUFFTEimoOGPN8hH-14">
          <mxGeometry x="30" width="150" height="30" as="geometry">
            <mxRectangle width="150" height="30" as="alternateBounds" />
          </mxGeometry>
        </mxCell>
        <mxCell id="7SyoxUFFTEimoOGPN8hH-17" value="Sorta" style="shape=table;startSize=30;container=1;collapsible=1;childLayout=tableLayout;fixedRows=1;rowLines=0;fontStyle=1;align=center;resizeLast=1;html=1;" vertex="1" parent="1">
          <mxGeometry x="490" y="780" width="170" height="230" as="geometry" />
        </mxCell>
        <mxCell id="7SyoxUFFTEimoOGPN8hH-18" value="" style="shape=tableRow;horizontal=0;startSize=0;swimlaneHead=0;swimlaneBody=0;fillColor=none;collapsible=0;dropTarget=0;points=[[0,0.5],[1,0.5]];portConstraint=eastwest;top=0;left=0;right=0;bottom=1;" vertex="1" parent="7SyoxUFFTEimoOGPN8hH-17">
          <mxGeometry y="30" width="170" height="30" as="geometry" />
        </mxCell>
        <mxCell id="7SyoxUFFTEimoOGPN8hH-19" value="PK" style="shape=partialRectangle;connectable=0;fillColor=none;top=0;left=0;bottom=0;right=0;fontStyle=1;overflow=hidden;whiteSpace=wrap;html=1;" vertex="1" parent="7SyoxUFFTEimoOGPN8hH-18">
          <mxGeometry width="30" height="30" as="geometry">
            <mxRectangle width="30" height="30" as="alternateBounds" />
          </mxGeometry>
        </mxCell>
        <mxCell id="7SyoxUFFTEimoOGPN8hH-20" value="IDSorta" style="shape=partialRectangle;connectable=0;fillColor=none;top=0;left=0;bottom=0;right=0;align=left;spacingLeft=6;fontStyle=5;overflow=hidden;whiteSpace=wrap;html=1;" vertex="1" parent="7SyoxUFFTEimoOGPN8hH-18">
          <mxGeometry x="30" width="140" height="30" as="geometry">
            <mxRectangle width="140" height="30" as="alternateBounds" />
          </mxGeometry>
        </mxCell>
        <mxCell id="7SyoxUFFTEimoOGPN8hH-21" value="" style="shape=tableRow;horizontal=0;startSize=0;swimlaneHead=0;swimlaneBody=0;fillColor=none;collapsible=0;dropTarget=0;points=[[0,0.5],[1,0.5]];portConstraint=eastwest;top=0;left=0;right=0;bottom=0;" vertex="1" parent="7SyoxUFFTEimoOGPN8hH-17">
          <mxGeometry y="60" width="170" height="30" as="geometry" />
        </mxCell>
        <mxCell id="7SyoxUFFTEimoOGPN8hH-22" value="" style="shape=partialRectangle;connectable=0;fillColor=none;top=0;left=0;bottom=0;right=0;editable=1;overflow=hidden;whiteSpace=wrap;html=1;" vertex="1" parent="7SyoxUFFTEimoOGPN8hH-21">
          <mxGeometry width="30" height="30" as="geometry">
            <mxRectangle width="30" height="30" as="alternateBounds" />
          </mxGeometry>
        </mxCell>
        <mxCell id="7SyoxUFFTEimoOGPN8hH-23" value="Naziv" style="shape=partialRectangle;connectable=0;fillColor=none;top=0;left=0;bottom=0;right=0;align=left;spacingLeft=6;overflow=hidden;whiteSpace=wrap;html=1;" vertex="1" parent="7SyoxUFFTEimoOGPN8hH-21">
          <mxGeometry x="30" width="140" height="30" as="geometry">
            <mxRectangle width="140" height="30" as="alternateBounds" />
          </mxGeometry>
        </mxCell>
        <mxCell id="7SyoxUFFTEimoOGPN8hH-24" value="" style="shape=tableRow;horizontal=0;startSize=0;swimlaneHead=0;swimlaneBody=0;fillColor=none;collapsible=0;dropTarget=0;points=[[0,0.5],[1,0.5]];portConstraint=eastwest;top=0;left=0;right=0;bottom=0;" vertex="1" parent="7SyoxUFFTEimoOGPN8hH-17">
          <mxGeometry y="90" width="170" height="30" as="geometry" />
        </mxCell>
        <mxCell id="7SyoxUFFTEimoOGPN8hH-25" value="" style="shape=partialRectangle;connectable=0;fillColor=none;top=0;left=0;bottom=0;right=0;editable=1;overflow=hidden;whiteSpace=wrap;html=1;" vertex="1" parent="7SyoxUFFTEimoOGPN8hH-24">
          <mxGeometry width="30" height="30" as="geometry">
            <mxRectangle width="30" height="30" as="alternateBounds" />
          </mxGeometry>
        </mxCell>
        <mxCell id="7SyoxUFFTEimoOGPN8hH-26" value="MibKolicina" style="shape=partialRectangle;connectable=0;fillColor=none;top=0;left=0;bottom=0;right=0;align=left;spacingLeft=6;overflow=hidden;whiteSpace=wrap;html=1;" vertex="1" parent="7SyoxUFFTEimoOGPN8hH-24">
          <mxGeometry x="30" width="140" height="30" as="geometry">
            <mxRectangle width="140" height="30" as="alternateBounds" />
          </mxGeometry>
        </mxCell>
        <mxCell id="7SyoxUFFTEimoOGPN8hH-27" value="" style="shape=tableRow;horizontal=0;startSize=0;swimlaneHead=0;swimlaneBody=0;fillColor=none;collapsible=0;dropTarget=0;points=[[0,0.5],[1,0.5]];portConstraint=eastwest;top=0;left=0;right=0;bottom=0;" vertex="1" parent="7SyoxUFFTEimoOGPN8hH-17">
          <mxGeometry y="120" width="170" height="30" as="geometry" />
        </mxCell>
        <mxCell id="7SyoxUFFTEimoOGPN8hH-28" value="" style="shape=partialRectangle;connectable=0;fillColor=none;top=0;left=0;bottom=0;right=0;editable=1;overflow=hidden;whiteSpace=wrap;html=1;" vertex="1" parent="7SyoxUFFTEimoOGPN8hH-27">
          <mxGeometry width="30" height="30" as="geometry">
            <mxRectangle width="30" height="30" as="alternateBounds" />
          </mxGeometry>
        </mxCell>
        <mxCell id="7SyoxUFFTEimoOGPN8hH-29" value="TrenutnaKoličina" style="shape=partialRectangle;connectable=0;fillColor=none;top=0;left=0;bottom=0;right=0;align=left;spacingLeft=6;overflow=hidden;whiteSpace=wrap;html=1;" vertex="1" parent="7SyoxUFFTEimoOGPN8hH-27">
          <mxGeometry x="30" width="140" height="30" as="geometry">
            <mxRectangle width="140" height="30" as="alternateBounds" />
          </mxGeometry>
        </mxCell>
        <mxCell id="7SyoxUFFTEimoOGPN8hH-30" value="" style="shape=tableRow;horizontal=0;startSize=0;swimlaneHead=0;swimlaneBody=0;fillColor=none;collapsible=0;dropTarget=0;points=[[0,0.5],[1,0.5]];portConstraint=eastwest;top=0;left=0;right=0;bottom=0;" vertex="1" parent="7SyoxUFFTEimoOGPN8hH-17">
          <mxGeometry y="150" width="170" height="30" as="geometry" />
        </mxCell>
        <mxCell id="7SyoxUFFTEimoOGPN8hH-31" value="" style="shape=partialRectangle;connectable=0;fillColor=none;top=0;left=0;bottom=0;right=0;editable=1;overflow=hidden;whiteSpace=wrap;html=1;" vertex="1" parent="7SyoxUFFTEimoOGPN8hH-30">
          <mxGeometry width="30" height="30" as="geometry">
            <mxRectangle width="30" height="30" as="alternateBounds" />
          </mxGeometry>
        </mxCell>
        <mxCell id="7SyoxUFFTEimoOGPN8hH-32" value="NabavnaCijena" style="shape=partialRectangle;connectable=0;fillColor=none;top=0;left=0;bottom=0;right=0;align=left;spacingLeft=6;overflow=hidden;whiteSpace=wrap;html=1;" vertex="1" parent="7SyoxUFFTEimoOGPN8hH-30">
          <mxGeometry x="30" width="140" height="30" as="geometry">
            <mxRectangle width="140" height="30" as="alternateBounds" />
          </mxGeometry>
        </mxCell>
        <mxCell id="7SyoxUFFTEimoOGPN8hH-33" value="" style="shape=tableRow;horizontal=0;startSize=0;swimlaneHead=0;swimlaneBody=0;fillColor=none;collapsible=0;dropTarget=0;points=[[0,0.5],[1,0.5]];portConstraint=eastwest;top=0;left=0;right=0;bottom=0;" vertex="1" parent="7SyoxUFFTEimoOGPN8hH-17">
          <mxGeometry y="180" width="170" height="25" as="geometry" />
        </mxCell>
        <mxCell id="7SyoxUFFTEimoOGPN8hH-34" value="" style="shape=partialRectangle;connectable=0;fillColor=none;top=0;left=0;bottom=0;right=0;editable=1;overflow=hidden;whiteSpace=wrap;html=1;" vertex="1" parent="7SyoxUFFTEimoOGPN8hH-33">
          <mxGeometry width="30" height="25" as="geometry">
            <mxRectangle width="30" height="25" as="alternateBounds" />
          </mxGeometry>
        </mxCell>
        <mxCell id="7SyoxUFFTEimoOGPN8hH-35" value="ProdajnaCijena" style="shape=partialRectangle;connectable=0;fillColor=none;top=0;left=0;bottom=0;right=0;align=left;spacingLeft=6;overflow=hidden;whiteSpace=wrap;html=1;" vertex="1" parent="7SyoxUFFTEimoOGPN8hH-33">
          <mxGeometry x="30" width="140" height="25" as="geometry">
            <mxRectangle width="140" height="25" as="alternateBounds" />
          </mxGeometry>
        </mxCell>
        <mxCell id="7SyoxUFFTEimoOGPN8hH-52" value="" style="shape=tableRow;horizontal=0;startSize=0;swimlaneHead=0;swimlaneBody=0;fillColor=none;collapsible=0;dropTarget=0;points=[[0,0.5],[1,0.5]];portConstraint=eastwest;top=0;left=0;right=0;bottom=0;" vertex="1" parent="7SyoxUFFTEimoOGPN8hH-17">
          <mxGeometry y="205" width="170" height="25" as="geometry" />
        </mxCell>
        <mxCell id="7SyoxUFFTEimoOGPN8hH-53" value="FK" style="shape=partialRectangle;connectable=0;fillColor=none;top=0;left=0;bottom=0;right=0;editable=1;overflow=hidden;whiteSpace=wrap;html=1;" vertex="1" parent="7SyoxUFFTEimoOGPN8hH-52">
          <mxGeometry width="30" height="25" as="geometry">
            <mxRectangle width="30" height="25" as="alternateBounds" />
          </mxGeometry>
        </mxCell>
        <mxCell id="7SyoxUFFTEimoOGPN8hH-54" value="VoceID" style="shape=partialRectangle;connectable=0;fillColor=none;top=0;left=0;bottom=0;right=0;align=left;spacingLeft=6;overflow=hidden;whiteSpace=wrap;html=1;" vertex="1" parent="7SyoxUFFTEimoOGPN8hH-52">
          <mxGeometry x="30" width="140" height="25" as="geometry">
            <mxRectangle width="140" height="25" as="alternateBounds" />
          </mxGeometry>
        </mxCell>
        <mxCell id="7SyoxUFFTEimoOGPN8hH-36" value="Voce" style="shape=table;startSize=30;container=1;collapsible=1;childLayout=tableLayout;fixedRows=1;rowLines=0;fontStyle=1;align=center;resizeLast=1;html=1;" vertex="1" parent="1">
          <mxGeometry x="150" y="950" width="180" height="90" as="geometry" />
        </mxCell>
        <mxCell id="7SyoxUFFTEimoOGPN8hH-37" value="" style="shape=tableRow;horizontal=0;startSize=0;swimlaneHead=0;swimlaneBody=0;fillColor=none;collapsible=0;dropTarget=0;points=[[0,0.5],[1,0.5]];portConstraint=eastwest;top=0;left=0;right=0;bottom=1;" vertex="1" parent="7SyoxUFFTEimoOGPN8hH-36">
          <mxGeometry y="30" width="180" height="30" as="geometry" />
        </mxCell>
        <mxCell id="7SyoxUFFTEimoOGPN8hH-38" value="PK" style="shape=partialRectangle;connectable=0;fillColor=none;top=0;left=0;bottom=0;right=0;fontStyle=1;overflow=hidden;whiteSpace=wrap;html=1;" vertex="1" parent="7SyoxUFFTEimoOGPN8hH-37">
          <mxGeometry width="30" height="30" as="geometry">
            <mxRectangle width="30" height="30" as="alternateBounds" />
          </mxGeometry>
        </mxCell>
        <mxCell id="7SyoxUFFTEimoOGPN8hH-39" value="IDVoce" style="shape=partialRectangle;connectable=0;fillColor=none;top=0;left=0;bottom=0;right=0;align=left;spacingLeft=6;fontStyle=5;overflow=hidden;whiteSpace=wrap;html=1;" vertex="1" parent="7SyoxUFFTEimoOGPN8hH-37">
          <mxGeometry x="30" width="150" height="30" as="geometry">
            <mxRectangle width="150" height="30" as="alternateBounds" />
          </mxGeometry>
        </mxCell>
        <mxCell id="7SyoxUFFTEimoOGPN8hH-40" value="" style="shape=tableRow;horizontal=0;startSize=0;swimlaneHead=0;swimlaneBody=0;fillColor=none;collapsible=0;dropTarget=0;points=[[0,0.5],[1,0.5]];portConstraint=eastwest;top=0;left=0;right=0;bottom=0;" vertex="1" parent="7SyoxUFFTEimoOGPN8hH-36">
          <mxGeometry y="60" width="180" height="30" as="geometry" />
        </mxCell>
        <mxCell id="7SyoxUFFTEimoOGPN8hH-41" value="" style="shape=partialRectangle;connectable=0;fillColor=none;top=0;left=0;bottom=0;right=0;editable=1;overflow=hidden;whiteSpace=wrap;html=1;" vertex="1" parent="7SyoxUFFTEimoOGPN8hH-40">
          <mxGeometry width="30" height="30" as="geometry">
            <mxRectangle width="30" height="30" as="alternateBounds" />
          </mxGeometry>
        </mxCell>
        <mxCell id="7SyoxUFFTEimoOGPN8hH-42" value="Naziv" style="shape=partialRectangle;connectable=0;fillColor=none;top=0;left=0;bottom=0;right=0;align=left;spacingLeft=6;overflow=hidden;whiteSpace=wrap;html=1;" vertex="1" parent="7SyoxUFFTEimoOGPN8hH-40">
          <mxGeometry x="30" width="150" height="30" as="geometry">
            <mxRectangle width="150" height="30" as="alternateBounds" />
          </mxGeometry>
        </mxCell>
        <mxCell id="7SyoxUFFTEimoOGPN8hH-75" style="edgeStyle=orthogonalEdgeStyle;rounded=0;orthogonalLoop=1;jettySize=auto;html=1;" edge="1" parent="7SyoxUFFTEimoOGPN8hH-36">
          <mxGeometry relative="1" as="geometry">
            <mxPoint x="180" y="65" as="sourcePoint" />
            <mxPoint x="180" y="85" as="targetPoint" />
          </mxGeometry>
        </mxCell>
        <mxCell id="7SyoxUFFTEimoOGPN8hH-77" style="edgeStyle=orthogonalEdgeStyle;rounded=0;orthogonalLoop=1;jettySize=auto;html=1;" edge="1" parent="7SyoxUFFTEimoOGPN8hH-36">
          <mxGeometry relative="1" as="geometry">
            <mxPoint x="180" y="65" as="sourcePoint" />
            <mxPoint x="180" y="85" as="targetPoint" />
          </mxGeometry>
        </mxCell>
        <mxCell id="7SyoxUFFTEimoOGPN8hH-56" value="DobavljacSorta" style="shape=table;startSize=30;container=1;collapsible=1;childLayout=tableLayout;fixedRows=1;rowLines=0;fontStyle=1;align=center;resizeLast=1;html=1;" vertex="1" parent="1">
          <mxGeometry x="150" y="770" width="160" height="120" as="geometry" />
        </mxCell>
        <mxCell id="7SyoxUFFTEimoOGPN8hH-57" value="" style="shape=tableRow;horizontal=0;startSize=0;swimlaneHead=0;swimlaneBody=0;fillColor=none;collapsible=0;dropTarget=0;points=[[0,0.5],[1,0.5]];portConstraint=eastwest;top=0;left=0;right=0;bottom=1;" vertex="1" parent="7SyoxUFFTEimoOGPN8hH-56">
          <mxGeometry y="30" width="160" height="30" as="geometry" />
        </mxCell>
        <mxCell id="7SyoxUFFTEimoOGPN8hH-58" value="PK" style="shape=partialRectangle;connectable=0;fillColor=none;top=0;left=0;bottom=0;right=0;fontStyle=1;overflow=hidden;whiteSpace=wrap;html=1;" vertex="1" parent="7SyoxUFFTEimoOGPN8hH-57">
          <mxGeometry width="30" height="30" as="geometry">
            <mxRectangle width="30" height="30" as="alternateBounds" />
          </mxGeometry>
        </mxCell>
        <mxCell id="7SyoxUFFTEimoOGPN8hH-59" value="IDDobavljacSorta" style="shape=partialRectangle;connectable=0;fillColor=none;top=0;left=0;bottom=0;right=0;align=left;spacingLeft=6;fontStyle=5;overflow=hidden;whiteSpace=wrap;html=1;" vertex="1" parent="7SyoxUFFTEimoOGPN8hH-57">
          <mxGeometry x="30" width="130" height="30" as="geometry">
            <mxRectangle width="130" height="30" as="alternateBounds" />
          </mxGeometry>
        </mxCell>
        <mxCell id="7SyoxUFFTEimoOGPN8hH-60" value="" style="shape=tableRow;horizontal=0;startSize=0;swimlaneHead=0;swimlaneBody=0;fillColor=none;collapsible=0;dropTarget=0;points=[[0,0.5],[1,0.5]];portConstraint=eastwest;top=0;left=0;right=0;bottom=0;" vertex="1" parent="7SyoxUFFTEimoOGPN8hH-56">
          <mxGeometry y="60" width="160" height="30" as="geometry" />
        </mxCell>
        <mxCell id="7SyoxUFFTEimoOGPN8hH-61" value="FK" style="shape=partialRectangle;connectable=0;fillColor=none;top=0;left=0;bottom=0;right=0;editable=1;overflow=hidden;whiteSpace=wrap;html=1;" vertex="1" parent="7SyoxUFFTEimoOGPN8hH-60">
          <mxGeometry width="30" height="30" as="geometry">
            <mxRectangle width="30" height="30" as="alternateBounds" />
          </mxGeometry>
        </mxCell>
        <mxCell id="7SyoxUFFTEimoOGPN8hH-62" value="DobavljacID" style="shape=partialRectangle;connectable=0;fillColor=none;top=0;left=0;bottom=0;right=0;align=left;spacingLeft=6;overflow=hidden;whiteSpace=wrap;html=1;" vertex="1" parent="7SyoxUFFTEimoOGPN8hH-60">
          <mxGeometry x="30" width="130" height="30" as="geometry">
            <mxRectangle width="130" height="30" as="alternateBounds" />
          </mxGeometry>
        </mxCell>
        <mxCell id="7SyoxUFFTEimoOGPN8hH-63" value="" style="shape=tableRow;horizontal=0;startSize=0;swimlaneHead=0;swimlaneBody=0;fillColor=none;collapsible=0;dropTarget=0;points=[[0,0.5],[1,0.5]];portConstraint=eastwest;top=0;left=0;right=0;bottom=0;" vertex="1" parent="7SyoxUFFTEimoOGPN8hH-56">
          <mxGeometry y="90" width="160" height="30" as="geometry" />
        </mxCell>
        <mxCell id="7SyoxUFFTEimoOGPN8hH-64" value="FK" style="shape=partialRectangle;connectable=0;fillColor=none;top=0;left=0;bottom=0;right=0;editable=1;overflow=hidden;whiteSpace=wrap;html=1;" vertex="1" parent="7SyoxUFFTEimoOGPN8hH-63">
          <mxGeometry width="30" height="30" as="geometry">
            <mxRectangle width="30" height="30" as="alternateBounds" />
          </mxGeometry>
        </mxCell>
        <mxCell id="7SyoxUFFTEimoOGPN8hH-65" value="SortaID" style="shape=partialRectangle;connectable=0;fillColor=none;top=0;left=0;bottom=0;right=0;align=left;spacingLeft=6;overflow=hidden;whiteSpace=wrap;html=1;" vertex="1" parent="7SyoxUFFTEimoOGPN8hH-63">
          <mxGeometry x="30" width="130" height="30" as="geometry">
            <mxRectangle width="130" height="30" as="alternateBounds" />
          </mxGeometry>
        </mxCell>
        <mxCell id="7SyoxUFFTEimoOGPN8hH-69" value="" style="edgeStyle=entityRelationEdgeStyle;fontSize=12;html=1;endArrow=ERoneToMany;rounded=0;exitX=1;exitY=0.5;exitDx=0;exitDy=0;entryX=0;entryY=0.5;entryDx=0;entryDy=0;" edge="1" parent="1" source="7SyoxUFFTEimoOGPN8hH-2" target="7SyoxUFFTEimoOGPN8hH-60">
          <mxGeometry width="100" height="100" relative="1" as="geometry">
            <mxPoint y="910" as="sourcePoint" />
            <mxPoint x="100" y="810" as="targetPoint" />
          </mxGeometry>
        </mxCell>
        <mxCell id="7SyoxUFFTEimoOGPN8hH-70" value="" style="edgeStyle=entityRelationEdgeStyle;fontSize=12;html=1;endArrow=ERoneToMany;rounded=0;exitX=0;exitY=0.5;exitDx=0;exitDy=0;" edge="1" parent="1" source="7SyoxUFFTEimoOGPN8hH-18" target="7SyoxUFFTEimoOGPN8hH-63">
          <mxGeometry width="100" height="100" relative="1" as="geometry">
            <mxPoint x="330" y="920" as="sourcePoint" />
            <mxPoint x="430" y="820" as="targetPoint" />
          </mxGeometry>
        </mxCell>
        <mxCell id="7SyoxUFFTEimoOGPN8hH-78" value="" style="edgeStyle=entityRelationEdgeStyle;fontSize=12;html=1;endArrow=ERoneToMany;rounded=0;exitX=1;exitY=0.5;exitDx=0;exitDy=0;" edge="1" parent="1" source="7SyoxUFFTEimoOGPN8hH-37">
          <mxGeometry width="100" height="100" relative="1" as="geometry">
            <mxPoint x="390" y="1100" as="sourcePoint" />
            <mxPoint x="490" y="1000" as="targetPoint" />
          </mxGeometry>
        </mxCell>
      </root>
    </mxGraphModel>
  </diagram>
</mxfile>
